<svg width="54" height="64" fill="none" xmlns="http://www.w3.org/2000/svg"><g clip-path="url(#a)"><path d="M21.765 27.176v-1.948h11.04v3.466h2.887v4.37h-2.887v3.261h2.312v3.623h-2.312v.955h-11.04v-2.139h-1.238v-2.439h1.238v-2.077h4.068v-5.554h-4.068v-1.518ZM32.804 2.13v7.289h2.063v1.415h-2.063v1.496h4.124v1.415h-4.124v3.699h-.927v2.835H18.464v-2.835h2.117v-3.699h5.309V12.33h-2.941v-1.496h.879V9.418h-2.063V2.13h-4.95v7.29h2.063v1.414h-2.063v1.496h4.125v1.415h-4.125v3.699h-.933v2.835H0v3.538h3.3v1.412h18.01v3.466h1.705v4.37h-2.887l-3.313 3.261h2.077v2.439h1.237l-3.313 2.137H3.302v4.95h13.514v5.187h1.238v7.788h.068V64h4.003v-5.174h.879v-7.788h-1.238V45.85h11.04v5.187h1.234v7.788h-2.063V64h4.948v-5.174h2.064v-7.788H37.75v-5.659h13.513v-4.476h-13.51v-2.139h-1.237v-2.439h1.238v-3.26h2.887v-4.371h-2.887v-3.466h13.513v-1.412h-3.3v-3.538H34.455v-2.835h2.117v-3.699h5.309V12.33H38.94v-1.496h.88V9.418h-2.064V2.13h-4.952Z" fill="#6FCCDD"/><path d="M24.487 25.047v-1.948h11.04v3.465h2.886v4.371h-2.886v3.26h-1.238v2.44h1.238v2.137h-11.04v-2.137h-1.238v-2.44h1.238v-3.26h2.884v-4.37h-2.884v-1.518ZM35.525 0v7.288h2.063v1.416h-.879V10.2h1.876v1.415h-3.06v3.698h-3.292v2.836H21.186v-2.836h3.3v-3.7h4.124V10.2h-4.125V8.702h2.063V7.287h-2.063V0h-4.95v7.289H21.6v1.415h-.88V10.2h2.232v1.415h-3.414v3.698h-3.3v2.836H2.723v3.537h3.3V23.1h13.514v3.465h2.887v4.371h-2.887v3.26h-1.238v2.44h1.238v2.137H6.023v4.95h13.514v5.186h1.238v7.788h-.997v5.175h3.885v-5.175h2.063v-7.788h-1.238v-5.186h11.04v5.186h1.234v7.788h-1.234v5.175h4.122v-5.175h2.063v-7.788h-1.238v-5.186h13.513v-4.713H40.48v-2.374h-1.238v-2.44h1.238v-3.26h2.887v-4.37H40.48v-3.466h13.513v-1.413h-3.3V18.15H37.18v-2.836h3.3v-3.7h4.124V10.2h-4.125V8.702h2.063V7.287H40.48V0h-4.954Z" fill="#ED1E24"/><path d="M23.055 25.875v-1.948h11.04v3.465h2.887v4.371h-2.886v3.26h-1.238v2.44h1.238V39.6h-11.04v-2.138h-1.238v-2.439h1.237v-3.26h2.884v-4.37h-2.884v-1.518ZM34.095.828v7.288h2.063v1.416h-2.063v1.496h4.125v1.415h-4.124v3.698h-3.293v2.836H19.756V16.14h3.3v-3.698h4.124v-1.415h-4.125V9.532h2.063V8.117h-2.063V.827h-4.95v7.29h2.064v1.415h-2.063v1.496h4.124v1.415h-4.124v3.698h-3.3v2.836H1.292v3.537h3.3v1.413h13.514v3.465h2.886v4.371h-2.886v3.26h-1.238v2.44h1.238V39.6H2.224v4.95h15.882v5.186h1.237v7.788H17.28V62.7h4.95v-5.175h2.063v-7.788h-1.238V44.55h11.04v5.186h1.234v7.788h-2.063V62.7h4.95v-5.175h2.063v-7.788h-1.238V44.55h13.513V39.6H39.045v-2.138h-1.238v-2.439h1.238v-3.26h2.887v-4.37h-2.887v-3.466h13.513v-1.413h-3.3v-3.537H35.747V16.14h3.3v-3.698h4.124v-1.415h-4.125V9.532h2.063V8.117h-2.063V.827h-4.95Z" fill="#fff"/></g><defs><clipPath id="a"><path fill="#fff" d="M0 0h53.992v64H0z"/></clipPath></defs></svg>
